<mxfile host="app.diagrams.net" modified="2024-06-27T06:11:39.996Z" agent="Mozilla/5.0 (Windows NT 10.0; Win64; x64) AppleWebKit/537.36 (KHTML, like Gecko) Chrome/125.0.0.0 Safari/537.36" etag="RfyLeWKurttqFtw0Q3mO" version="24.5.5" type="device">
  <diagram name="Page-1" id="FnstAKTPmOgE6aiRERvY">
    <mxGraphModel dx="2284" dy="1880" grid="1" gridSize="10" guides="1" tooltips="1" connect="1" arrows="1" fold="1" page="1" pageScale="1" pageWidth="850" pageHeight="1100" math="0" shadow="0">
      <root>
        <mxCell id="0" />
        <mxCell id="1" parent="0" />
        <mxCell id="vP5aR-Ci2R3j3Ts7c0Dq-1" value="" style="verticalLabelPosition=bottom;verticalAlign=top;html=1;shape=mxgraph.basic.rect;fillColor2=none;strokeWidth=1;size=20;indent=5;" vertex="1" parent="1">
          <mxGeometry x="-280" y="-140" width="1560" height="840" as="geometry" />
        </mxCell>
        <mxCell id="vP5aR-Ci2R3j3Ts7c0Dq-16" value="AWS Account" style="points=[[0,0],[0.25,0],[0.5,0],[0.75,0],[1,0],[1,0.25],[1,0.5],[1,0.75],[1,1],[0.75,1],[0.5,1],[0.25,1],[0,1],[0,0.75],[0,0.5],[0,0.25]];outlineConnect=0;gradientColor=none;html=1;whiteSpace=wrap;fontSize=12;fontStyle=0;container=1;pointerEvents=0;collapsible=0;recursiveResize=0;shape=mxgraph.aws4.group;grIcon=mxgraph.aws4.group_account;strokeColor=#CD2264;fillColor=none;verticalAlign=top;align=left;spacingLeft=30;fontColor=#CD2264;dashed=0;" vertex="1" parent="1">
          <mxGeometry x="-260" y="-120" width="1520" height="800" as="geometry" />
        </mxCell>
        <mxCell id="vP5aR-Ci2R3j3Ts7c0Dq-17" value="Region" style="points=[[0,0],[0.25,0],[0.5,0],[0.75,0],[1,0],[1,0.25],[1,0.5],[1,0.75],[1,1],[0.75,1],[0.5,1],[0.25,1],[0,1],[0,0.75],[0,0.5],[0,0.25]];outlineConnect=0;gradientColor=none;html=1;whiteSpace=wrap;fontSize=12;fontStyle=0;container=1;pointerEvents=0;collapsible=0;recursiveResize=0;shape=mxgraph.aws4.group;grIcon=mxgraph.aws4.group_region;strokeColor=#00A4A6;fillColor=none;verticalAlign=top;align=left;spacingLeft=30;fontColor=#147EBA;dashed=1;" vertex="1" parent="vP5aR-Ci2R3j3Ts7c0Dq-16">
          <mxGeometry x="30" y="30" width="1470" height="750" as="geometry" />
        </mxCell>
        <mxCell id="vP5aR-Ci2R3j3Ts7c0Dq-18" value="Spoke 1 VPC" style="points=[[0,0],[0.25,0],[0.5,0],[0.75,0],[1,0],[1,0.25],[1,0.5],[1,0.75],[1,1],[0.75,1],[0.5,1],[0.25,1],[0,1],[0,0.75],[0,0.5],[0,0.25]];outlineConnect=0;gradientColor=none;html=1;whiteSpace=wrap;fontSize=12;fontStyle=0;container=1;pointerEvents=0;collapsible=0;recursiveResize=0;shape=mxgraph.aws4.group;grIcon=mxgraph.aws4.group_vpc2;strokeColor=#8C4FFF;fillColor=none;verticalAlign=top;align=left;spacingLeft=30;fontColor=#AAB7B8;dashed=0;" vertex="1" parent="vP5aR-Ci2R3j3Ts7c0Dq-17">
          <mxGeometry x="30" y="50" width="360" height="280" as="geometry" />
        </mxCell>
        <mxCell id="vP5aR-Ci2R3j3Ts7c0Dq-20" value="Availability Zone A" style="fillColor=none;strokeColor=#147EBA;dashed=1;verticalAlign=top;fontStyle=0;fontColor=#147EBA;whiteSpace=wrap;html=1;" vertex="1" parent="vP5aR-Ci2R3j3Ts7c0Dq-18">
          <mxGeometry x="20" y="30" width="320" height="110" as="geometry" />
        </mxCell>
        <mxCell id="vP5aR-Ci2R3j3Ts7c0Dq-21" value="Availability Zone B" style="fillColor=none;strokeColor=#147EBA;dashed=1;verticalAlign=top;fontStyle=0;fontColor=#147EBA;whiteSpace=wrap;html=1;" vertex="1" parent="vP5aR-Ci2R3j3Ts7c0Dq-18">
          <mxGeometry x="20" y="150" width="320" height="110" as="geometry" />
        </mxCell>
        <mxCell id="vP5aR-Ci2R3j3Ts7c0Dq-25" value="Private subnet" style="points=[[0,0],[0.25,0],[0.5,0],[0.75,0],[1,0],[1,0.25],[1,0.5],[1,0.75],[1,1],[0.75,1],[0.5,1],[0.25,1],[0,1],[0,0.75],[0,0.5],[0,0.25]];outlineConnect=0;gradientColor=none;html=1;whiteSpace=wrap;fontSize=12;fontStyle=0;container=1;pointerEvents=0;collapsible=0;recursiveResize=0;shape=mxgraph.aws4.group;grIcon=mxgraph.aws4.group_security_group;grStroke=0;strokeColor=#00A4A6;fillColor=#E6F6F7;verticalAlign=top;align=left;spacingLeft=30;fontColor=#147EBA;dashed=0;" vertex="1" parent="vP5aR-Ci2R3j3Ts7c0Dq-18">
          <mxGeometry x="110" y="60" width="130" height="70" as="geometry" />
        </mxCell>
        <mxCell id="vP5aR-Ci2R3j3Ts7c0Dq-26" value="Private subnet" style="points=[[0,0],[0.25,0],[0.5,0],[0.75,0],[1,0],[1,0.25],[1,0.5],[1,0.75],[1,1],[0.75,1],[0.5,1],[0.25,1],[0,1],[0,0.75],[0,0.5],[0,0.25]];outlineConnect=0;gradientColor=none;html=1;whiteSpace=wrap;fontSize=12;fontStyle=0;container=1;pointerEvents=0;collapsible=0;recursiveResize=0;shape=mxgraph.aws4.group;grIcon=mxgraph.aws4.group_security_group;grStroke=0;strokeColor=#00A4A6;fillColor=#E6F6F7;verticalAlign=top;align=left;spacingLeft=30;fontColor=#147EBA;dashed=0;" vertex="1" parent="vP5aR-Ci2R3j3Ts7c0Dq-18">
          <mxGeometry x="110" y="180" width="130" height="70" as="geometry" />
        </mxCell>
        <mxCell id="vP5aR-Ci2R3j3Ts7c0Dq-144" style="edgeStyle=orthogonalEdgeStyle;rounded=0;orthogonalLoop=1;jettySize=auto;html=1;strokeWidth=2;fillColor=#d5e8d4;strokeColor=#82b366;flowAnimation=1;" edge="1" parent="vP5aR-Ci2R3j3Ts7c0Dq-18" source="vP5aR-Ci2R3j3Ts7c0Dq-29" target="vP5aR-Ci2R3j3Ts7c0Dq-122">
          <mxGeometry relative="1" as="geometry" />
        </mxCell>
        <mxCell id="vP5aR-Ci2R3j3Ts7c0Dq-29" value="&lt;span style=&quot;color: rgba(0, 0, 0, 0); font-family: monospace; font-size: 0px; text-align: start;&quot;&gt;%3CmxGraphModel%3E%3Croot%3E%3CmxCell%20id%3D%220%22%2F%3E%3CmxCell%20id%3D%221%22%20parent%3D%220%22%2F%3E%3CmxCell%20id%3D%222%22%20value%3D%22%22%20style%3D%22sketch%3D0%3Bpoints%3D%5B%5B0%2C0%2C0%5D%2C%5B0.25%2C0%2C0%5D%2C%5B0.5%2C0%2C0%5D%2C%5B0.75%2C0%2C0%5D%2C%5B1%2C0%2C0%5D%2C%5B0%2C1%2C0%5D%2C%5B0.25%2C1%2C0%5D%2C%5B0.5%2C1%2C0%5D%2C%5B0.75%2C1%2C0%5D%2C%5B1%2C1%2C0%5D%2C%5B0%2C0.25%2C0%5D%2C%5B0%2C0.5%2C0%5D%2C%5B0%2C0.75%2C0%5D%2C%5B1%2C0.25%2C0%5D%2C%5B1%2C0.5%2C0%5D%2C%5B1%2C0.75%2C0%5D%5D%3BoutlineConnect%3D0%3BfontColor%3D%23232F3E%3BfillColor%3D%23ED7100%3BstrokeColor%3D%23ffffff%3Bdashed%3D0%3BverticalLabelPosition%3Dbottom%3BverticalAlign%3Dtop%3Balign%3Dcenter%3Bhtml%3D1%3BfontSize%3D12%3BfontStyle%3D0%3Baspect%3Dfixed%3Bshape%3Dmxgraph.aws4.resourceIcon%3BresIcon%3Dmxgraph.aws4.lambda%3B%22%20vertex%3D%221%22%20parent%3D%221%22%3E%3CmxGeometry%20x%3D%22-44%22%20y%3D%22525%22%20width%3D%2238%22%20height%3D%2238%22%20as%3D%22geometry%22%2F%3E%3C%2FmxCell%3E%3C%2Froot%3E%3C%2FmxGraphModel%3E&lt;/span&gt;" style="sketch=0;points=[[0,0,0],[0.25,0,0],[0.5,0,0],[0.75,0,0],[1,0,0],[0,1,0],[0.25,1,0],[0.5,1,0],[0.75,1,0],[1,1,0],[0,0.25,0],[0,0.5,0],[0,0.75,0],[1,0.25,0],[1,0.5,0],[1,0.75,0]];outlineConnect=0;fontColor=#232F3E;fillColor=#ED7100;strokeColor=#ffffff;dashed=0;verticalLabelPosition=bottom;verticalAlign=top;align=center;html=1;fontSize=12;fontStyle=0;aspect=fixed;shape=mxgraph.aws4.resourceIcon;resIcon=mxgraph.aws4.lambda;" vertex="1" parent="vP5aR-Ci2R3j3Ts7c0Dq-18">
          <mxGeometry x="156" y="80" width="38" height="38" as="geometry" />
        </mxCell>
        <mxCell id="vP5aR-Ci2R3j3Ts7c0Dq-122" value="" style="sketch=0;outlineConnect=0;fontColor=#232F3E;gradientColor=none;fillColor=#8C4FFF;strokeColor=none;dashed=0;verticalLabelPosition=bottom;verticalAlign=top;align=center;html=1;fontSize=12;fontStyle=0;aspect=fixed;pointerEvents=1;shape=mxgraph.aws4.route_table;" vertex="1" parent="vP5aR-Ci2R3j3Ts7c0Dq-18">
          <mxGeometry x="260" y="130" width="38" height="37.03" as="geometry" />
        </mxCell>
        <mxCell id="vP5aR-Ci2R3j3Ts7c0Dq-123" value="&lt;span style=&quot;color: rgba(0, 0, 0, 0); font-family: monospace; font-size: 0px; text-align: start;&quot;&gt;%3CmxGraphModel%3E%3Croot%3E%3CmxCell%20id%3D%220%22%2F%3E%3CmxCell%20id%3D%221%22%20parent%3D%220%22%2F%3E%3CmxCell%20id%3D%222%22%20value%3D%22%22%20style%3D%22sketch%3D0%3Bpoints%3D%5B%5B0%2C0%2C0%5D%2C%5B0.25%2C0%2C0%5D%2C%5B0.5%2C0%2C0%5D%2C%5B0.75%2C0%2C0%5D%2C%5B1%2C0%2C0%5D%2C%5B0%2C1%2C0%5D%2C%5B0.25%2C1%2C0%5D%2C%5B0.5%2C1%2C0%5D%2C%5B0.75%2C1%2C0%5D%2C%5B1%2C1%2C0%5D%2C%5B0%2C0.25%2C0%5D%2C%5B0%2C0.5%2C0%5D%2C%5B0%2C0.75%2C0%5D%2C%5B1%2C0.25%2C0%5D%2C%5B1%2C0.5%2C0%5D%2C%5B1%2C0.75%2C0%5D%5D%3BoutlineConnect%3D0%3BfontColor%3D%23232F3E%3BfillColor%3D%23ED7100%3BstrokeColor%3D%23ffffff%3Bdashed%3D0%3BverticalLabelPosition%3Dbottom%3BverticalAlign%3Dtop%3Balign%3Dcenter%3Bhtml%3D1%3BfontSize%3D12%3BfontStyle%3D0%3Baspect%3Dfixed%3Bshape%3Dmxgraph.aws4.resourceIcon%3BresIcon%3Dmxgraph.aws4.lambda%3B%22%20vertex%3D%221%22%20parent%3D%221%22%3E%3CmxGeometry%20x%3D%22-44%22%20y%3D%22525%22%20width%3D%2238%22%20height%3D%2238%22%20as%3D%22geometry%22%2F%3E%3C%2FmxCell%3E%3C%2Froot%3E%3C%2FmxGraphModel%3E&lt;/span&gt;" style="sketch=0;points=[[0,0,0],[0.25,0,0],[0.5,0,0],[0.75,0,0],[1,0,0],[0,1,0],[0.25,1,0],[0.5,1,0],[0.75,1,0],[1,1,0],[0,0.25,0],[0,0.5,0],[0,0.75,0],[1,0.25,0],[1,0.5,0],[1,0.75,0]];outlineConnect=0;fontColor=#232F3E;fillColor=#ED7100;strokeColor=#ffffff;dashed=0;verticalLabelPosition=bottom;verticalAlign=top;align=center;html=1;fontSize=12;fontStyle=0;aspect=fixed;shape=mxgraph.aws4.resourceIcon;resIcon=mxgraph.aws4.lambda;" vertex="1" parent="vP5aR-Ci2R3j3Ts7c0Dq-18">
          <mxGeometry x="156" y="200" width="38" height="38" as="geometry" />
        </mxCell>
        <mxCell id="vP5aR-Ci2R3j3Ts7c0Dq-22" value="Spoke 2 VPC" style="points=[[0,0],[0.25,0],[0.5,0],[0.75,0],[1,0],[1,0.25],[1,0.5],[1,0.75],[1,1],[0.75,1],[0.5,1],[0.25,1],[0,1],[0,0.75],[0,0.5],[0,0.25]];outlineConnect=0;gradientColor=none;html=1;whiteSpace=wrap;fontSize=12;fontStyle=0;container=1;pointerEvents=0;collapsible=0;recursiveResize=0;shape=mxgraph.aws4.group;grIcon=mxgraph.aws4.group_vpc2;strokeColor=#8C4FFF;fillColor=none;verticalAlign=top;align=left;spacingLeft=30;fontColor=#AAB7B8;dashed=0;" vertex="1" parent="vP5aR-Ci2R3j3Ts7c0Dq-17">
          <mxGeometry x="30" y="400" width="360" height="280" as="geometry" />
        </mxCell>
        <mxCell id="vP5aR-Ci2R3j3Ts7c0Dq-23" value="Availability Zone A" style="fillColor=none;strokeColor=#147EBA;dashed=1;verticalAlign=top;fontStyle=0;fontColor=#147EBA;whiteSpace=wrap;html=1;" vertex="1" parent="vP5aR-Ci2R3j3Ts7c0Dq-22">
          <mxGeometry x="20" y="30" width="320" height="110" as="geometry" />
        </mxCell>
        <mxCell id="vP5aR-Ci2R3j3Ts7c0Dq-24" value="Availability Zone B" style="fillColor=none;strokeColor=#147EBA;dashed=1;verticalAlign=top;fontStyle=0;fontColor=#147EBA;whiteSpace=wrap;html=1;" vertex="1" parent="vP5aR-Ci2R3j3Ts7c0Dq-22">
          <mxGeometry x="20" y="150" width="320" height="110" as="geometry" />
        </mxCell>
        <mxCell id="vP5aR-Ci2R3j3Ts7c0Dq-27" value="Private subnet" style="points=[[0,0],[0.25,0],[0.5,0],[0.75,0],[1,0],[1,0.25],[1,0.5],[1,0.75],[1,1],[0.75,1],[0.5,1],[0.25,1],[0,1],[0,0.75],[0,0.5],[0,0.25]];outlineConnect=0;gradientColor=none;html=1;whiteSpace=wrap;fontSize=12;fontStyle=0;container=1;pointerEvents=0;collapsible=0;recursiveResize=0;shape=mxgraph.aws4.group;grIcon=mxgraph.aws4.group_security_group;grStroke=0;strokeColor=#00A4A6;fillColor=#E6F6F7;verticalAlign=top;align=left;spacingLeft=30;fontColor=#147EBA;dashed=0;" vertex="1" parent="vP5aR-Ci2R3j3Ts7c0Dq-22">
          <mxGeometry x="115" y="60" width="130" height="70" as="geometry" />
        </mxCell>
        <mxCell id="vP5aR-Ci2R3j3Ts7c0Dq-28" value="Private subnet" style="points=[[0,0],[0.25,0],[0.5,0],[0.75,0],[1,0],[1,0.25],[1,0.5],[1,0.75],[1,1],[0.75,1],[0.5,1],[0.25,1],[0,1],[0,0.75],[0,0.5],[0,0.25]];outlineConnect=0;gradientColor=none;html=1;whiteSpace=wrap;fontSize=12;fontStyle=0;container=1;pointerEvents=0;collapsible=0;recursiveResize=0;shape=mxgraph.aws4.group;grIcon=mxgraph.aws4.group_security_group;grStroke=0;strokeColor=#00A4A6;fillColor=#E6F6F7;verticalAlign=top;align=left;spacingLeft=30;fontColor=#147EBA;dashed=0;" vertex="1" parent="vP5aR-Ci2R3j3Ts7c0Dq-22">
          <mxGeometry x="115" y="180" width="130" height="70" as="geometry" />
        </mxCell>
        <mxCell id="vP5aR-Ci2R3j3Ts7c0Dq-121" value="" style="sketch=0;points=[[0,0,0],[0.25,0,0],[0.5,0,0],[0.75,0,0],[1,0,0],[0,1,0],[0.25,1,0],[0.5,1,0],[0.75,1,0],[1,1,0],[0,0.25,0],[0,0.5,0],[0,0.75,0],[1,0.25,0],[1,0.5,0],[1,0.75,0]];outlineConnect=0;fontColor=#232F3E;fillColor=#ED7100;strokeColor=#ffffff;dashed=0;verticalLabelPosition=bottom;verticalAlign=top;align=center;html=1;fontSize=12;fontStyle=0;aspect=fixed;shape=mxgraph.aws4.resourceIcon;resIcon=mxgraph.aws4.lambda;" vertex="1" parent="vP5aR-Ci2R3j3Ts7c0Dq-28">
          <mxGeometry x="41" y="25" width="38" height="38" as="geometry" />
        </mxCell>
        <mxCell id="vP5aR-Ci2R3j3Ts7c0Dq-145" style="edgeStyle=orthogonalEdgeStyle;rounded=0;orthogonalLoop=1;jettySize=auto;html=1;strokeWidth=2;fillColor=#d5e8d4;strokeColor=#82b366;flowAnimation=1;" edge="1" parent="vP5aR-Ci2R3j3Ts7c0Dq-22" source="vP5aR-Ci2R3j3Ts7c0Dq-30" target="vP5aR-Ci2R3j3Ts7c0Dq-124">
          <mxGeometry relative="1" as="geometry" />
        </mxCell>
        <mxCell id="vP5aR-Ci2R3j3Ts7c0Dq-30" value="" style="sketch=0;points=[[0,0,0],[0.25,0,0],[0.5,0,0],[0.75,0,0],[1,0,0],[0,1,0],[0.25,1,0],[0.5,1,0],[0.75,1,0],[1,1,0],[0,0.25,0],[0,0.5,0],[0,0.75,0],[1,0.25,0],[1,0.5,0],[1,0.75,0]];outlineConnect=0;fontColor=#232F3E;fillColor=#ED7100;strokeColor=#ffffff;dashed=0;verticalLabelPosition=bottom;verticalAlign=top;align=center;html=1;fontSize=12;fontStyle=0;aspect=fixed;shape=mxgraph.aws4.resourceIcon;resIcon=mxgraph.aws4.lambda;" vertex="1" parent="vP5aR-Ci2R3j3Ts7c0Dq-22">
          <mxGeometry x="160" y="80" width="38" height="38" as="geometry" />
        </mxCell>
        <mxCell id="vP5aR-Ci2R3j3Ts7c0Dq-124" value="" style="sketch=0;outlineConnect=0;fontColor=#232F3E;gradientColor=none;fillColor=#8C4FFF;strokeColor=none;dashed=0;verticalLabelPosition=bottom;verticalAlign=top;align=center;html=1;fontSize=12;fontStyle=0;aspect=fixed;pointerEvents=1;shape=mxgraph.aws4.route_table;" vertex="1" parent="vP5aR-Ci2R3j3Ts7c0Dq-22">
          <mxGeometry x="260" y="130" width="38" height="37.03" as="geometry" />
        </mxCell>
        <mxCell id="vP5aR-Ci2R3j3Ts7c0Dq-31" value="VPC" style="points=[[0,0],[0.25,0],[0.5,0],[0.75,0],[1,0],[1,0.25],[1,0.5],[1,0.75],[1,1],[0.75,1],[0.5,1],[0.25,1],[0,1],[0,0.75],[0,0.5],[0,0.25]];outlineConnect=0;gradientColor=none;html=1;whiteSpace=wrap;fontSize=12;fontStyle=0;container=1;pointerEvents=0;collapsible=0;recursiveResize=0;shape=mxgraph.aws4.group;grIcon=mxgraph.aws4.group_vpc2;strokeColor=#8C4FFF;fillColor=none;verticalAlign=top;align=left;spacingLeft=30;fontColor=#AAB7B8;dashed=0;" vertex="1" parent="vP5aR-Ci2R3j3Ts7c0Dq-17">
          <mxGeometry x="770" y="190" width="540" height="370" as="geometry" />
        </mxCell>
        <mxCell id="vP5aR-Ci2R3j3Ts7c0Dq-106" value="Availability Zone A" style="fillColor=none;strokeColor=#147EBA;dashed=1;verticalAlign=top;fontStyle=0;fontColor=#147EBA;whiteSpace=wrap;html=1;" vertex="1" parent="vP5aR-Ci2R3j3Ts7c0Dq-31">
          <mxGeometry x="20" y="40" width="440" height="149.5" as="geometry" />
        </mxCell>
        <mxCell id="vP5aR-Ci2R3j3Ts7c0Dq-109" value="Private subnet" style="points=[[0,0],[0.25,0],[0.5,0],[0.75,0],[1,0],[1,0.25],[1,0.5],[1,0.75],[1,1],[0.75,1],[0.5,1],[0.25,1],[0,1],[0,0.75],[0,0.5],[0,0.25]];outlineConnect=0;gradientColor=none;html=1;whiteSpace=wrap;fontSize=12;fontStyle=0;container=1;pointerEvents=0;collapsible=0;recursiveResize=0;shape=mxgraph.aws4.group;grIcon=mxgraph.aws4.group_security_group;grStroke=0;strokeColor=#00A4A6;fillColor=#E6F6F7;verticalAlign=top;align=left;spacingLeft=30;fontColor=#147EBA;dashed=0;" vertex="1" parent="vP5aR-Ci2R3j3Ts7c0Dq-31">
          <mxGeometry x="40" y="70" width="130" height="100.25" as="geometry" />
        </mxCell>
        <mxCell id="vP5aR-Ci2R3j3Ts7c0Dq-133" value="Public subnet" style="points=[[0,0],[0.25,0],[0.5,0],[0.75,0],[1,0],[1,0.25],[1,0.5],[1,0.75],[1,1],[0.75,1],[0.5,1],[0.25,1],[0,1],[0,0.75],[0,0.5],[0,0.25]];outlineConnect=0;gradientColor=none;html=1;whiteSpace=wrap;fontSize=12;fontStyle=0;container=1;pointerEvents=0;collapsible=0;recursiveResize=0;shape=mxgraph.aws4.group;grIcon=mxgraph.aws4.group_security_group;grStroke=0;strokeColor=#7AA116;fillColor=#F2F6E8;verticalAlign=top;align=left;spacingLeft=30;fontColor=#248814;dashed=0;" vertex="1" parent="vP5aR-Ci2R3j3Ts7c0Dq-31">
          <mxGeometry x="320" y="64.75" width="130" height="100" as="geometry" />
        </mxCell>
        <mxCell id="vP5aR-Ci2R3j3Ts7c0Dq-137" value="" style="rounded=1;arcSize=10;dashed=1;strokeColor=#F59D56;fillColor=none;gradientColor=none;dashPattern=8 4;strokeWidth=2;" vertex="1" parent="vP5aR-Ci2R3j3Ts7c0Dq-31">
          <mxGeometry x="30" y="50" width="150" height="290" as="geometry" />
        </mxCell>
        <mxCell id="vP5aR-Ci2R3j3Ts7c0Dq-139" value="" style="rounded=1;arcSize=10;dashed=1;strokeColor=#F59D56;fillColor=none;gradientColor=none;dashPattern=8 4;strokeWidth=2;" vertex="1" parent="vP5aR-Ci2R3j3Ts7c0Dq-31">
          <mxGeometry x="307" y="49.99" width="150" height="290" as="geometry" />
        </mxCell>
        <mxCell id="vP5aR-Ci2R3j3Ts7c0Dq-141" value="" style="sketch=0;outlineConnect=0;fontColor=#232F3E;gradientColor=none;fillColor=#8C4FFF;strokeColor=none;dashed=0;verticalLabelPosition=bottom;verticalAlign=top;align=center;html=1;fontSize=12;fontStyle=0;aspect=fixed;pointerEvents=1;shape=mxgraph.aws4.route_table;" vertex="1" parent="vP5aR-Ci2R3j3Ts7c0Dq-31">
          <mxGeometry x="86" y="27.72" width="38" height="37.03" as="geometry" />
        </mxCell>
        <mxCell id="vP5aR-Ci2R3j3Ts7c0Dq-189" value="NAT Gateway" style="sketch=0;outlineConnect=0;fontColor=#232F3E;gradientColor=none;fillColor=#8C4FFF;strokeColor=none;dashed=0;verticalLabelPosition=bottom;verticalAlign=top;align=center;html=1;fontSize=12;fontStyle=0;aspect=fixed;pointerEvents=1;shape=mxgraph.aws4.nat_gateway;" vertex="1" parent="vP5aR-Ci2R3j3Ts7c0Dq-31">
          <mxGeometry x="360" y="98.13" width="44" height="44" as="geometry" />
        </mxCell>
        <mxCell id="vP5aR-Ci2R3j3Ts7c0Dq-111" value="Spoke 2 VPC RT" style="shape=table;startSize=20;container=1;collapsible=0;childLayout=tableLayout;strokeColor=default;fontSize=10;spacing=2;" vertex="1" parent="vP5aR-Ci2R3j3Ts7c0Dq-17">
          <mxGeometry x="520" y="585" width="120" height="90" as="geometry" />
        </mxCell>
        <mxCell id="vP5aR-Ci2R3j3Ts7c0Dq-112" style="shape=tableRow;horizontal=0;startSize=0;swimlaneHead=0;swimlaneBody=0;strokeColor=inherit;top=0;left=0;bottom=0;right=0;collapsible=0;dropTarget=0;fillColor=none;points=[[0,0.5],[1,0.5]];portConstraint=eastwest;fontSize=16;" vertex="1" parent="vP5aR-Ci2R3j3Ts7c0Dq-111">
          <mxGeometry y="20" width="120" height="25" as="geometry" />
        </mxCell>
        <mxCell id="vP5aR-Ci2R3j3Ts7c0Dq-113" value="Destination" style="shape=partialRectangle;html=1;whiteSpace=wrap;connectable=0;strokeColor=inherit;overflow=hidden;fillColor=none;top=0;left=0;bottom=0;right=0;pointerEvents=1;fontSize=10;" vertex="1" parent="vP5aR-Ci2R3j3Ts7c0Dq-112">
          <mxGeometry width="55" height="25" as="geometry">
            <mxRectangle width="55" height="25" as="alternateBounds" />
          </mxGeometry>
        </mxCell>
        <mxCell id="vP5aR-Ci2R3j3Ts7c0Dq-114" value="Target" style="shape=partialRectangle;html=1;whiteSpace=wrap;connectable=0;strokeColor=inherit;overflow=hidden;fillColor=none;top=0;left=0;bottom=0;right=0;pointerEvents=1;fontSize=10;" vertex="1" parent="vP5aR-Ci2R3j3Ts7c0Dq-112">
          <mxGeometry x="55" width="65" height="25" as="geometry">
            <mxRectangle width="65" height="25" as="alternateBounds" />
          </mxGeometry>
        </mxCell>
        <mxCell id="vP5aR-Ci2R3j3Ts7c0Dq-115" value="" style="shape=tableRow;horizontal=0;startSize=0;swimlaneHead=0;swimlaneBody=0;strokeColor=inherit;top=0;left=0;bottom=0;right=0;collapsible=0;dropTarget=0;fillColor=none;points=[[0,0.5],[1,0.5]];portConstraint=eastwest;fontSize=16;" vertex="1" parent="vP5aR-Ci2R3j3Ts7c0Dq-111">
          <mxGeometry y="45" width="120" height="20" as="geometry" />
        </mxCell>
        <mxCell id="vP5aR-Ci2R3j3Ts7c0Dq-116" value="&lt;font style=&quot;font-size: 10px;&quot;&gt;10.3.0.0/23&lt;/font&gt;" style="shape=partialRectangle;html=1;whiteSpace=wrap;connectable=0;strokeColor=inherit;overflow=hidden;fillColor=none;top=0;left=0;bottom=0;right=0;pointerEvents=1;fontSize=10;" vertex="1" parent="vP5aR-Ci2R3j3Ts7c0Dq-115">
          <mxGeometry width="55" height="20" as="geometry">
            <mxRectangle width="55" height="20" as="alternateBounds" />
          </mxGeometry>
        </mxCell>
        <mxCell id="vP5aR-Ci2R3j3Ts7c0Dq-117" value="local" style="shape=partialRectangle;html=1;whiteSpace=wrap;connectable=0;strokeColor=inherit;overflow=hidden;fillColor=none;top=0;left=0;bottom=0;right=0;pointerEvents=1;fontSize=10;" vertex="1" parent="vP5aR-Ci2R3j3Ts7c0Dq-115">
          <mxGeometry x="55" width="65" height="20" as="geometry">
            <mxRectangle width="65" height="20" as="alternateBounds" />
          </mxGeometry>
        </mxCell>
        <mxCell id="vP5aR-Ci2R3j3Ts7c0Dq-118" value="" style="shape=tableRow;horizontal=0;startSize=0;swimlaneHead=0;swimlaneBody=0;strokeColor=inherit;top=0;left=0;bottom=0;right=0;collapsible=0;dropTarget=0;fillColor=none;points=[[0,0.5],[1,0.5]];portConstraint=eastwest;fontSize=16;" vertex="1" parent="vP5aR-Ci2R3j3Ts7c0Dq-111">
          <mxGeometry y="65" width="120" height="25" as="geometry" />
        </mxCell>
        <mxCell id="vP5aR-Ci2R3j3Ts7c0Dq-119" value="&lt;font style=&quot;font-size: 10px;&quot;&gt;0.0.0.0/0&lt;/font&gt;" style="shape=partialRectangle;html=1;whiteSpace=wrap;connectable=0;strokeColor=inherit;overflow=hidden;fillColor=none;top=0;left=0;bottom=0;right=0;pointerEvents=1;fontSize=10;" vertex="1" parent="vP5aR-Ci2R3j3Ts7c0Dq-118">
          <mxGeometry width="55" height="25" as="geometry">
            <mxRectangle width="55" height="25" as="alternateBounds" />
          </mxGeometry>
        </mxCell>
        <mxCell id="vP5aR-Ci2R3j3Ts7c0Dq-120" value="tgw-xxxx" style="shape=partialRectangle;html=1;whiteSpace=wrap;connectable=0;strokeColor=inherit;overflow=hidden;fillColor=none;top=0;left=0;bottom=0;right=0;pointerEvents=1;fontSize=10;" vertex="1" parent="vP5aR-Ci2R3j3Ts7c0Dq-118">
          <mxGeometry x="55" width="65" height="25" as="geometry">
            <mxRectangle width="65" height="25" as="alternateBounds" />
          </mxGeometry>
        </mxCell>
        <mxCell id="vP5aR-Ci2R3j3Ts7c0Dq-125" style="edgeStyle=orthogonalEdgeStyle;rounded=0;orthogonalLoop=1;jettySize=auto;html=1;entryX=-0.033;entryY=0.1;entryDx=0;entryDy=0;entryPerimeter=0;strokeWidth=2;fillColor=#d5e8d4;strokeColor=#82b366;flowAnimation=1;" edge="1" parent="vP5aR-Ci2R3j3Ts7c0Dq-17" source="vP5aR-Ci2R3j3Ts7c0Dq-124" target="vP5aR-Ci2R3j3Ts7c0Dq-115">
          <mxGeometry relative="1" as="geometry" />
        </mxCell>
        <mxCell id="vP5aR-Ci2R3j3Ts7c0Dq-163" value="Egress Private RT B" style="shape=table;startSize=20;container=1;collapsible=0;childLayout=tableLayout;strokeColor=default;fontSize=10;spacing=2;" vertex="1" parent="vP5aR-Ci2R3j3Ts7c0Dq-17">
          <mxGeometry x="830" y="585" width="120" height="140" as="geometry" />
        </mxCell>
        <mxCell id="vP5aR-Ci2R3j3Ts7c0Dq-164" style="shape=tableRow;horizontal=0;startSize=0;swimlaneHead=0;swimlaneBody=0;strokeColor=inherit;top=0;left=0;bottom=0;right=0;collapsible=0;dropTarget=0;fillColor=none;points=[[0,0.5],[1,0.5]];portConstraint=eastwest;fontSize=16;" vertex="1" parent="vP5aR-Ci2R3j3Ts7c0Dq-163">
          <mxGeometry y="20" width="120" height="25" as="geometry" />
        </mxCell>
        <mxCell id="vP5aR-Ci2R3j3Ts7c0Dq-165" value="Destination" style="shape=partialRectangle;html=1;whiteSpace=wrap;connectable=0;strokeColor=inherit;overflow=hidden;fillColor=none;top=0;left=0;bottom=0;right=0;pointerEvents=1;fontSize=10;" vertex="1" parent="vP5aR-Ci2R3j3Ts7c0Dq-164">
          <mxGeometry width="55" height="25" as="geometry">
            <mxRectangle width="55" height="25" as="alternateBounds" />
          </mxGeometry>
        </mxCell>
        <mxCell id="vP5aR-Ci2R3j3Ts7c0Dq-166" value="Target" style="shape=partialRectangle;html=1;whiteSpace=wrap;connectable=0;strokeColor=inherit;overflow=hidden;fillColor=none;top=0;left=0;bottom=0;right=0;pointerEvents=1;fontSize=10;" vertex="1" parent="vP5aR-Ci2R3j3Ts7c0Dq-164">
          <mxGeometry x="55" width="65" height="25" as="geometry">
            <mxRectangle width="65" height="25" as="alternateBounds" />
          </mxGeometry>
        </mxCell>
        <mxCell id="vP5aR-Ci2R3j3Ts7c0Dq-167" value="" style="shape=tableRow;horizontal=0;startSize=0;swimlaneHead=0;swimlaneBody=0;strokeColor=inherit;top=0;left=0;bottom=0;right=0;collapsible=0;dropTarget=0;fillColor=none;points=[[0,0.5],[1,0.5]];portConstraint=eastwest;fontSize=16;" vertex="1" parent="vP5aR-Ci2R3j3Ts7c0Dq-163">
          <mxGeometry y="45" width="120" height="20" as="geometry" />
        </mxCell>
        <mxCell id="vP5aR-Ci2R3j3Ts7c0Dq-168" value="&lt;font style=&quot;font-size: 10px;&quot;&gt;10.0.0.0/23&lt;/font&gt;" style="shape=partialRectangle;html=1;whiteSpace=wrap;connectable=0;strokeColor=inherit;overflow=hidden;fillColor=none;top=0;left=0;bottom=0;right=0;pointerEvents=1;fontSize=10;" vertex="1" parent="vP5aR-Ci2R3j3Ts7c0Dq-167">
          <mxGeometry width="55" height="20" as="geometry">
            <mxRectangle width="55" height="20" as="alternateBounds" />
          </mxGeometry>
        </mxCell>
        <mxCell id="vP5aR-Ci2R3j3Ts7c0Dq-169" value="local" style="shape=partialRectangle;html=1;whiteSpace=wrap;connectable=0;strokeColor=inherit;overflow=hidden;fillColor=none;top=0;left=0;bottom=0;right=0;pointerEvents=1;fontSize=10;" vertex="1" parent="vP5aR-Ci2R3j3Ts7c0Dq-167">
          <mxGeometry x="55" width="65" height="20" as="geometry">
            <mxRectangle width="65" height="20" as="alternateBounds" />
          </mxGeometry>
        </mxCell>
        <mxCell id="vP5aR-Ci2R3j3Ts7c0Dq-170" value="" style="shape=tableRow;horizontal=0;startSize=0;swimlaneHead=0;swimlaneBody=0;strokeColor=inherit;top=0;left=0;bottom=0;right=0;collapsible=0;dropTarget=0;fillColor=none;points=[[0,0.5],[1,0.5]];portConstraint=eastwest;fontSize=16;" vertex="1" parent="vP5aR-Ci2R3j3Ts7c0Dq-163">
          <mxGeometry y="65" width="120" height="25" as="geometry" />
        </mxCell>
        <mxCell id="vP5aR-Ci2R3j3Ts7c0Dq-171" value="&lt;font style=&quot;font-size: 10px;&quot;&gt;0.0.0.0/0&lt;/font&gt;" style="shape=partialRectangle;html=1;whiteSpace=wrap;connectable=0;strokeColor=inherit;overflow=hidden;fillColor=none;top=0;left=0;bottom=0;right=0;pointerEvents=1;fontSize=10;" vertex="1" parent="vP5aR-Ci2R3j3Ts7c0Dq-170">
          <mxGeometry width="55" height="25" as="geometry">
            <mxRectangle width="55" height="25" as="alternateBounds" />
          </mxGeometry>
        </mxCell>
        <mxCell id="vP5aR-Ci2R3j3Ts7c0Dq-172" value="NAT-az-B" style="shape=partialRectangle;html=1;whiteSpace=wrap;connectable=0;strokeColor=inherit;overflow=hidden;fillColor=none;top=0;left=0;bottom=0;right=0;pointerEvents=1;fontSize=10;" vertex="1" parent="vP5aR-Ci2R3j3Ts7c0Dq-170">
          <mxGeometry x="55" width="65" height="25" as="geometry">
            <mxRectangle width="65" height="25" as="alternateBounds" />
          </mxGeometry>
        </mxCell>
        <mxCell id="vP5aR-Ci2R3j3Ts7c0Dq-173" style="shape=tableRow;horizontal=0;startSize=0;swimlaneHead=0;swimlaneBody=0;strokeColor=inherit;top=0;left=0;bottom=0;right=0;collapsible=0;dropTarget=0;fillColor=none;points=[[0,0.5],[1,0.5]];portConstraint=eastwest;fontSize=16;" vertex="1" parent="vP5aR-Ci2R3j3Ts7c0Dq-163">
          <mxGeometry y="90" width="120" height="25" as="geometry" />
        </mxCell>
        <mxCell id="vP5aR-Ci2R3j3Ts7c0Dq-174" value="10.2.0.0/23" style="shape=partialRectangle;html=1;whiteSpace=wrap;connectable=0;strokeColor=inherit;overflow=hidden;fillColor=none;top=0;left=0;bottom=0;right=0;pointerEvents=1;fontSize=10;" vertex="1" parent="vP5aR-Ci2R3j3Ts7c0Dq-173">
          <mxGeometry width="55" height="25" as="geometry">
            <mxRectangle width="55" height="25" as="alternateBounds" />
          </mxGeometry>
        </mxCell>
        <mxCell id="vP5aR-Ci2R3j3Ts7c0Dq-175" value="tgw-xxxxx" style="shape=partialRectangle;html=1;whiteSpace=wrap;connectable=0;strokeColor=inherit;overflow=hidden;fillColor=none;top=0;left=0;bottom=0;right=0;pointerEvents=1;fontSize=10;" vertex="1" parent="vP5aR-Ci2R3j3Ts7c0Dq-173">
          <mxGeometry x="55" width="65" height="25" as="geometry">
            <mxRectangle width="65" height="25" as="alternateBounds" />
          </mxGeometry>
        </mxCell>
        <mxCell id="vP5aR-Ci2R3j3Ts7c0Dq-176" style="shape=tableRow;horizontal=0;startSize=0;swimlaneHead=0;swimlaneBody=0;strokeColor=inherit;top=0;left=0;bottom=0;right=0;collapsible=0;dropTarget=0;fillColor=none;points=[[0,0.5],[1,0.5]];portConstraint=eastwest;fontSize=16;" vertex="1" parent="vP5aR-Ci2R3j3Ts7c0Dq-163">
          <mxGeometry y="115" width="120" height="25" as="geometry" />
        </mxCell>
        <mxCell id="vP5aR-Ci2R3j3Ts7c0Dq-177" value="10.3.0.0/23" style="shape=partialRectangle;html=1;whiteSpace=wrap;connectable=0;strokeColor=inherit;overflow=hidden;fillColor=none;top=0;left=0;bottom=0;right=0;pointerEvents=1;fontSize=10;" vertex="1" parent="vP5aR-Ci2R3j3Ts7c0Dq-176">
          <mxGeometry width="55" height="25" as="geometry">
            <mxRectangle width="55" height="25" as="alternateBounds" />
          </mxGeometry>
        </mxCell>
        <mxCell id="vP5aR-Ci2R3j3Ts7c0Dq-178" value="tgw-xxxxx" style="shape=partialRectangle;html=1;whiteSpace=wrap;connectable=0;strokeColor=inherit;overflow=hidden;fillColor=none;top=0;left=0;bottom=0;right=0;pointerEvents=1;fontSize=10;" vertex="1" parent="vP5aR-Ci2R3j3Ts7c0Dq-176">
          <mxGeometry x="55" width="65" height="25" as="geometry">
            <mxRectangle width="65" height="25" as="alternateBounds" />
          </mxGeometry>
        </mxCell>
        <mxCell id="vP5aR-Ci2R3j3Ts7c0Dq-69" value="" style="verticalLabelPosition=bottom;verticalAlign=top;html=1;shape=mxgraph.basic.rect;fillColor2=none;strokeWidth=1;size=20;indent=5;" vertex="1" parent="vP5aR-Ci2R3j3Ts7c0Dq-17">
          <mxGeometry x="460" y="227.5" width="240" height="265" as="geometry" />
        </mxCell>
        <mxCell id="vP5aR-Ci2R3j3Ts7c0Dq-126" style="edgeStyle=orthogonalEdgeStyle;rounded=0;orthogonalLoop=1;jettySize=auto;html=1;flowAnimation=1;strokeWidth=2;fillColor=#d5e8d4;strokeColor=#82b366;" edge="1" parent="vP5aR-Ci2R3j3Ts7c0Dq-17" source="vP5aR-Ci2R3j3Ts7c0Dq-111" target="vP5aR-Ci2R3j3Ts7c0Dq-69">
          <mxGeometry relative="1" as="geometry" />
        </mxCell>
        <mxCell id="vP5aR-Ci2R3j3Ts7c0Dq-143" style="edgeStyle=orthogonalEdgeStyle;rounded=0;orthogonalLoop=1;jettySize=auto;html=1;entryX=0.36;entryY=-0.017;entryDx=0;entryDy=0;entryPerimeter=0;strokeWidth=2;fillColor=#d5e8d4;strokeColor=#82b366;flowAnimation=1;" edge="1" parent="vP5aR-Ci2R3j3Ts7c0Dq-17" source="vP5aR-Ci2R3j3Ts7c0Dq-69" target="vP5aR-Ci2R3j3Ts7c0Dq-137">
          <mxGeometry relative="1" as="geometry" />
        </mxCell>
        <mxCell id="vP5aR-Ci2R3j3Ts7c0Dq-188" value="" style="sketch=0;outlineConnect=0;fontColor=#232F3E;gradientColor=none;fillColor=#8C4FFF;strokeColor=none;dashed=0;verticalLabelPosition=bottom;verticalAlign=top;align=center;html=1;fontSize=12;fontStyle=0;aspect=fixed;pointerEvents=1;shape=mxgraph.aws4.internet_gateway;" vertex="1" parent="vP5aR-Ci2R3j3Ts7c0Dq-17">
          <mxGeometry x="1277.38" y="370" width="45.25" height="45.25" as="geometry" />
        </mxCell>
        <mxCell id="vP5aR-Ci2R3j3Ts7c0Dq-84" value="" style="sketch=0;points=[[0,0,0],[0.25,0,0],[0.5,0,0],[0.75,0,0],[1,0,0],[0,1,0],[0.25,1,0],[0.5,1,0],[0.75,1,0],[1,1,0],[0,0.25,0],[0,0.5,0],[0,0.75,0],[1,0.25,0],[1,0.5,0],[1,0.75,0]];outlineConnect=0;fontColor=#232F3E;fillColor=#8C4FFF;strokeColor=#ffffff;dashed=0;verticalLabelPosition=bottom;verticalAlign=top;align=center;html=1;fontSize=12;fontStyle=0;aspect=fixed;shape=mxgraph.aws4.resourceIcon;resIcon=mxgraph.aws4.transit_gateway;" vertex="1" parent="vP5aR-Ci2R3j3Ts7c0Dq-17">
          <mxGeometry x="460" y="227.5" width="38" height="38" as="geometry" />
        </mxCell>
        <mxCell id="vP5aR-Ci2R3j3Ts7c0Dq-32" value="Spoke 1 VPC RT" style="shape=table;startSize=20;container=1;collapsible=0;childLayout=tableLayout;strokeColor=default;fontSize=11;spacing=2;" vertex="1" parent="1">
          <mxGeometry x="280" y="-30" width="130" height="95" as="geometry" />
        </mxCell>
        <mxCell id="vP5aR-Ci2R3j3Ts7c0Dq-89" style="shape=tableRow;horizontal=0;startSize=0;swimlaneHead=0;swimlaneBody=0;strokeColor=inherit;top=0;left=0;bottom=0;right=0;collapsible=0;dropTarget=0;fillColor=none;points=[[0,0.5],[1,0.5]];portConstraint=eastwest;fontSize=16;" vertex="1" parent="vP5aR-Ci2R3j3Ts7c0Dq-32">
          <mxGeometry y="20" width="130" height="25" as="geometry" />
        </mxCell>
        <mxCell id="vP5aR-Ci2R3j3Ts7c0Dq-90" value="Destination" style="shape=partialRectangle;html=1;whiteSpace=wrap;connectable=0;strokeColor=inherit;overflow=hidden;fillColor=none;top=0;left=0;bottom=0;right=0;pointerEvents=1;fontSize=11;" vertex="1" parent="vP5aR-Ci2R3j3Ts7c0Dq-89">
          <mxGeometry width="60" height="25" as="geometry">
            <mxRectangle width="60" height="25" as="alternateBounds" />
          </mxGeometry>
        </mxCell>
        <mxCell id="vP5aR-Ci2R3j3Ts7c0Dq-91" value="Target" style="shape=partialRectangle;html=1;whiteSpace=wrap;connectable=0;strokeColor=inherit;overflow=hidden;fillColor=none;top=0;left=0;bottom=0;right=0;pointerEvents=1;fontSize=11;" vertex="1" parent="vP5aR-Ci2R3j3Ts7c0Dq-89">
          <mxGeometry x="60" width="70" height="25" as="geometry">
            <mxRectangle width="70" height="25" as="alternateBounds" />
          </mxGeometry>
        </mxCell>
        <mxCell id="vP5aR-Ci2R3j3Ts7c0Dq-33" value="" style="shape=tableRow;horizontal=0;startSize=0;swimlaneHead=0;swimlaneBody=0;strokeColor=inherit;top=0;left=0;bottom=0;right=0;collapsible=0;dropTarget=0;fillColor=none;points=[[0,0.5],[1,0.5]];portConstraint=eastwest;fontSize=16;" vertex="1" parent="vP5aR-Ci2R3j3Ts7c0Dq-32">
          <mxGeometry y="45" width="130" height="25" as="geometry" />
        </mxCell>
        <mxCell id="vP5aR-Ci2R3j3Ts7c0Dq-34" value="&lt;font style=&quot;font-size: 11px;&quot;&gt;10.2.0.0/23&lt;/font&gt;" style="shape=partialRectangle;html=1;whiteSpace=wrap;connectable=0;strokeColor=inherit;overflow=hidden;fillColor=none;top=0;left=0;bottom=0;right=0;pointerEvents=1;fontSize=11;" vertex="1" parent="vP5aR-Ci2R3j3Ts7c0Dq-33">
          <mxGeometry width="60" height="25" as="geometry">
            <mxRectangle width="60" height="25" as="alternateBounds" />
          </mxGeometry>
        </mxCell>
        <mxCell id="vP5aR-Ci2R3j3Ts7c0Dq-35" value="local" style="shape=partialRectangle;html=1;whiteSpace=wrap;connectable=0;strokeColor=inherit;overflow=hidden;fillColor=none;top=0;left=0;bottom=0;right=0;pointerEvents=1;fontSize=11;" vertex="1" parent="vP5aR-Ci2R3j3Ts7c0Dq-33">
          <mxGeometry x="60" width="70" height="25" as="geometry">
            <mxRectangle width="70" height="25" as="alternateBounds" />
          </mxGeometry>
        </mxCell>
        <mxCell id="vP5aR-Ci2R3j3Ts7c0Dq-37" value="" style="shape=tableRow;horizontal=0;startSize=0;swimlaneHead=0;swimlaneBody=0;strokeColor=inherit;top=0;left=0;bottom=0;right=0;collapsible=0;dropTarget=0;fillColor=none;points=[[0,0.5],[1,0.5]];portConstraint=eastwest;fontSize=16;" vertex="1" parent="vP5aR-Ci2R3j3Ts7c0Dq-32">
          <mxGeometry y="70" width="130" height="25" as="geometry" />
        </mxCell>
        <mxCell id="vP5aR-Ci2R3j3Ts7c0Dq-38" value="&lt;font style=&quot;font-size: 11px;&quot;&gt;0.0.0.0/0&lt;/font&gt;" style="shape=partialRectangle;html=1;whiteSpace=wrap;connectable=0;strokeColor=inherit;overflow=hidden;fillColor=none;top=0;left=0;bottom=0;right=0;pointerEvents=1;fontSize=11;" vertex="1" parent="vP5aR-Ci2R3j3Ts7c0Dq-37">
          <mxGeometry width="60" height="25" as="geometry">
            <mxRectangle width="60" height="25" as="alternateBounds" />
          </mxGeometry>
        </mxCell>
        <mxCell id="vP5aR-Ci2R3j3Ts7c0Dq-39" value="tgw-xxxx" style="shape=partialRectangle;html=1;whiteSpace=wrap;connectable=0;strokeColor=inherit;overflow=hidden;fillColor=none;top=0;left=0;bottom=0;right=0;pointerEvents=1;fontSize=11;" vertex="1" parent="vP5aR-Ci2R3j3Ts7c0Dq-37">
          <mxGeometry x="60" width="70" height="25" as="geometry">
            <mxRectangle width="70" height="25" as="alternateBounds" />
          </mxGeometry>
        </mxCell>
        <mxCell id="vP5aR-Ci2R3j3Ts7c0Dq-67" style="edgeStyle=orthogonalEdgeStyle;rounded=0;orthogonalLoop=1;jettySize=auto;html=1;entryX=0;entryY=0.5;entryDx=0;entryDy=0;strokeWidth=2;fillColor=#d5e8d4;strokeColor=#82b366;flowAnimation=1;exitX=0.869;exitY=1.064;exitDx=0;exitDy=0;exitPerimeter=0;" edge="1" parent="1" source="vP5aR-Ci2R3j3Ts7c0Dq-20" target="vP5aR-Ci2R3j3Ts7c0Dq-33">
          <mxGeometry relative="1" as="geometry" />
        </mxCell>
        <mxCell id="vP5aR-Ci2R3j3Ts7c0Dq-70" value="Spoke TGW RT" style="shape=table;startSize=28;container=1;collapsible=0;childLayout=tableLayout;strokeColor=default;fontSize=10;spacing=2;" vertex="1" parent="1">
          <mxGeometry x="236" y="190" width="228" height="95" as="geometry" />
        </mxCell>
        <mxCell id="vP5aR-Ci2R3j3Ts7c0Dq-92" style="shape=tableRow;horizontal=0;startSize=0;swimlaneHead=0;swimlaneBody=0;strokeColor=inherit;top=0;left=0;bottom=0;right=0;collapsible=0;dropTarget=0;fillColor=none;points=[[0,0.5],[1,0.5]];portConstraint=eastwest;fontSize=16;" vertex="1" parent="vP5aR-Ci2R3j3Ts7c0Dq-70">
          <mxGeometry y="28" width="228" height="23" as="geometry" />
        </mxCell>
        <mxCell id="vP5aR-Ci2R3j3Ts7c0Dq-93" value="Destination" style="shape=partialRectangle;html=1;whiteSpace=wrap;connectable=0;strokeColor=inherit;overflow=hidden;fillColor=none;top=0;left=0;bottom=0;right=0;pointerEvents=1;fontSize=10;" vertex="1" parent="vP5aR-Ci2R3j3Ts7c0Dq-92">
          <mxGeometry width="115" height="23" as="geometry">
            <mxRectangle width="115" height="23" as="alternateBounds" />
          </mxGeometry>
        </mxCell>
        <mxCell id="vP5aR-Ci2R3j3Ts7c0Dq-94" value="Target" style="shape=partialRectangle;html=1;whiteSpace=wrap;connectable=0;strokeColor=inherit;overflow=hidden;fillColor=none;top=0;left=0;bottom=0;right=0;pointerEvents=1;fontSize=10;" vertex="1" parent="vP5aR-Ci2R3j3Ts7c0Dq-92">
          <mxGeometry x="115" width="113" height="23" as="geometry">
            <mxRectangle width="113" height="23" as="alternateBounds" />
          </mxGeometry>
        </mxCell>
        <mxCell id="vP5aR-Ci2R3j3Ts7c0Dq-71" value="" style="shape=tableRow;horizontal=0;startSize=0;swimlaneHead=0;swimlaneBody=0;strokeColor=inherit;top=0;left=0;bottom=0;right=0;collapsible=0;dropTarget=0;fillColor=none;points=[[0,0.5],[1,0.5]];portConstraint=eastwest;fontSize=16;" vertex="1" parent="vP5aR-Ci2R3j3Ts7c0Dq-70">
          <mxGeometry y="51" width="228" height="21" as="geometry" />
        </mxCell>
        <mxCell id="vP5aR-Ci2R3j3Ts7c0Dq-72" value="&lt;font style=&quot;font-size: 10px;&quot;&gt;0.0.0.0/0&lt;/font&gt;" style="shape=partialRectangle;html=1;whiteSpace=wrap;connectable=0;strokeColor=inherit;overflow=hidden;fillColor=none;top=0;left=0;bottom=0;right=0;pointerEvents=1;fontSize=10;" vertex="1" parent="vP5aR-Ci2R3j3Ts7c0Dq-71">
          <mxGeometry width="115" height="21" as="geometry">
            <mxRectangle width="115" height="21" as="alternateBounds" />
          </mxGeometry>
        </mxCell>
        <mxCell id="vP5aR-Ci2R3j3Ts7c0Dq-73" value="vpc-egress-attachment" style="shape=partialRectangle;html=1;whiteSpace=wrap;connectable=0;strokeColor=inherit;overflow=hidden;fillColor=none;top=0;left=0;bottom=0;right=0;pointerEvents=1;fontSize=10;" vertex="1" parent="vP5aR-Ci2R3j3Ts7c0Dq-71">
          <mxGeometry x="115" width="113" height="21" as="geometry">
            <mxRectangle width="113" height="21" as="alternateBounds" />
          </mxGeometry>
        </mxCell>
        <mxCell id="vP5aR-Ci2R3j3Ts7c0Dq-74" value="" style="shape=tableRow;horizontal=0;startSize=0;swimlaneHead=0;swimlaneBody=0;strokeColor=inherit;top=0;left=0;bottom=0;right=0;collapsible=0;dropTarget=0;fillColor=none;points=[[0,0.5],[1,0.5]];portConstraint=eastwest;fontSize=16;" vertex="1" parent="vP5aR-Ci2R3j3Ts7c0Dq-70">
          <mxGeometry y="72" width="228" height="23" as="geometry" />
        </mxCell>
        <mxCell id="vP5aR-Ci2R3j3Ts7c0Dq-75" value="&lt;font style=&quot;font-size: 10px;&quot;&gt;10.0.0.0/8&lt;/font&gt;" style="shape=partialRectangle;html=1;whiteSpace=wrap;connectable=0;strokeColor=inherit;overflow=hidden;fillColor=none;top=0;left=0;bottom=0;right=0;pointerEvents=1;fontSize=10;" vertex="1" parent="vP5aR-Ci2R3j3Ts7c0Dq-74">
          <mxGeometry width="115" height="23" as="geometry">
            <mxRectangle width="115" height="23" as="alternateBounds" />
          </mxGeometry>
        </mxCell>
        <mxCell id="vP5aR-Ci2R3j3Ts7c0Dq-76" value="blackhole" style="shape=partialRectangle;html=1;whiteSpace=wrap;connectable=0;strokeColor=inherit;overflow=hidden;fillColor=none;top=0;left=0;bottom=0;right=0;pointerEvents=1;fontSize=10;" vertex="1" parent="vP5aR-Ci2R3j3Ts7c0Dq-74">
          <mxGeometry x="115" width="113" height="23" as="geometry">
            <mxRectangle width="113" height="23" as="alternateBounds" />
          </mxGeometry>
        </mxCell>
        <mxCell id="vP5aR-Ci2R3j3Ts7c0Dq-96" value="Egress TGW RT" style="shape=table;startSize=28;container=1;collapsible=0;childLayout=tableLayout;strokeColor=default;fontSize=10;spacing=2;" vertex="1" parent="1">
          <mxGeometry x="236" y="300" width="228" height="95" as="geometry" />
        </mxCell>
        <mxCell id="vP5aR-Ci2R3j3Ts7c0Dq-97" style="shape=tableRow;horizontal=0;startSize=0;swimlaneHead=0;swimlaneBody=0;strokeColor=inherit;top=0;left=0;bottom=0;right=0;collapsible=0;dropTarget=0;fillColor=none;points=[[0,0.5],[1,0.5]];portConstraint=eastwest;fontSize=16;" vertex="1" parent="vP5aR-Ci2R3j3Ts7c0Dq-96">
          <mxGeometry y="28" width="228" height="23" as="geometry" />
        </mxCell>
        <mxCell id="vP5aR-Ci2R3j3Ts7c0Dq-98" value="Destination" style="shape=partialRectangle;html=1;whiteSpace=wrap;connectable=0;strokeColor=inherit;overflow=hidden;fillColor=none;top=0;left=0;bottom=0;right=0;pointerEvents=1;fontSize=10;" vertex="1" parent="vP5aR-Ci2R3j3Ts7c0Dq-97">
          <mxGeometry width="115" height="23" as="geometry">
            <mxRectangle width="115" height="23" as="alternateBounds" />
          </mxGeometry>
        </mxCell>
        <mxCell id="vP5aR-Ci2R3j3Ts7c0Dq-99" value="Target" style="shape=partialRectangle;html=1;whiteSpace=wrap;connectable=0;strokeColor=inherit;overflow=hidden;fillColor=none;top=0;left=0;bottom=0;right=0;pointerEvents=1;fontSize=10;" vertex="1" parent="vP5aR-Ci2R3j3Ts7c0Dq-97">
          <mxGeometry x="115" width="113" height="23" as="geometry">
            <mxRectangle width="113" height="23" as="alternateBounds" />
          </mxGeometry>
        </mxCell>
        <mxCell id="vP5aR-Ci2R3j3Ts7c0Dq-100" value="" style="shape=tableRow;horizontal=0;startSize=0;swimlaneHead=0;swimlaneBody=0;strokeColor=inherit;top=0;left=0;bottom=0;right=0;collapsible=0;dropTarget=0;fillColor=none;points=[[0,0.5],[1,0.5]];portConstraint=eastwest;fontSize=16;" vertex="1" parent="vP5aR-Ci2R3j3Ts7c0Dq-96">
          <mxGeometry y="51" width="228" height="21" as="geometry" />
        </mxCell>
        <mxCell id="vP5aR-Ci2R3j3Ts7c0Dq-101" value="&lt;font style=&quot;font-size: 10px;&quot;&gt;10.2.0.0/23&lt;/font&gt;" style="shape=partialRectangle;html=1;whiteSpace=wrap;connectable=0;strokeColor=inherit;overflow=hidden;fillColor=none;top=0;left=0;bottom=0;right=0;pointerEvents=1;fontSize=10;" vertex="1" parent="vP5aR-Ci2R3j3Ts7c0Dq-100">
          <mxGeometry width="115" height="21" as="geometry">
            <mxRectangle width="115" height="21" as="alternateBounds" />
          </mxGeometry>
        </mxCell>
        <mxCell id="vP5aR-Ci2R3j3Ts7c0Dq-102" value="vpc1-attachment" style="shape=partialRectangle;html=1;whiteSpace=wrap;connectable=0;strokeColor=inherit;overflow=hidden;fillColor=none;top=0;left=0;bottom=0;right=0;pointerEvents=1;fontSize=10;" vertex="1" parent="vP5aR-Ci2R3j3Ts7c0Dq-100">
          <mxGeometry x="115" width="113" height="21" as="geometry">
            <mxRectangle width="113" height="21" as="alternateBounds" />
          </mxGeometry>
        </mxCell>
        <mxCell id="vP5aR-Ci2R3j3Ts7c0Dq-103" value="" style="shape=tableRow;horizontal=0;startSize=0;swimlaneHead=0;swimlaneBody=0;strokeColor=inherit;top=0;left=0;bottom=0;right=0;collapsible=0;dropTarget=0;fillColor=none;points=[[0,0.5],[1,0.5]];portConstraint=eastwest;fontSize=16;" vertex="1" parent="vP5aR-Ci2R3j3Ts7c0Dq-96">
          <mxGeometry y="72" width="228" height="23" as="geometry" />
        </mxCell>
        <mxCell id="vP5aR-Ci2R3j3Ts7c0Dq-104" value="10.3.0.0/23" style="shape=partialRectangle;html=1;whiteSpace=wrap;connectable=0;strokeColor=inherit;overflow=hidden;fillColor=none;top=0;left=0;bottom=0;right=0;pointerEvents=1;fontSize=10;" vertex="1" parent="vP5aR-Ci2R3j3Ts7c0Dq-103">
          <mxGeometry width="115" height="23" as="geometry">
            <mxRectangle width="115" height="23" as="alternateBounds" />
          </mxGeometry>
        </mxCell>
        <mxCell id="vP5aR-Ci2R3j3Ts7c0Dq-105" value="vpc2-attachment" style="shape=partialRectangle;html=1;whiteSpace=wrap;connectable=0;strokeColor=inherit;overflow=hidden;fillColor=none;top=0;left=0;bottom=0;right=0;pointerEvents=1;fontSize=10;" vertex="1" parent="vP5aR-Ci2R3j3Ts7c0Dq-103">
          <mxGeometry x="115" width="113" height="23" as="geometry">
            <mxRectangle width="113" height="23" as="alternateBounds" />
          </mxGeometry>
        </mxCell>
        <mxCell id="vP5aR-Ci2R3j3Ts7c0Dq-108" value="Availability Zone B" style="fillColor=none;strokeColor=#147EBA;dashed=1;verticalAlign=top;fontStyle=0;fontColor=#147EBA;whiteSpace=wrap;html=1;" vertex="1" parent="1">
          <mxGeometry x="560" y="312.75" width="440" height="149.5" as="geometry" />
        </mxCell>
        <mxCell id="vP5aR-Ci2R3j3Ts7c0Dq-110" value="Private subnet" style="points=[[0,0],[0.25,0],[0.5,0],[0.75,0],[1,0],[1,0.25],[1,0.5],[1,0.75],[1,1],[0.75,1],[0.5,1],[0.25,1],[0,1],[0,0.75],[0,0.5],[0,0.25]];outlineConnect=0;gradientColor=none;html=1;whiteSpace=wrap;fontSize=12;fontStyle=0;container=1;pointerEvents=0;collapsible=0;recursiveResize=0;shape=mxgraph.aws4.group;grIcon=mxgraph.aws4.group_security_group;grStroke=0;strokeColor=#00A4A6;fillColor=#E6F6F7;verticalAlign=top;align=left;spacingLeft=30;fontColor=#147EBA;dashed=0;" vertex="1" parent="1">
          <mxGeometry x="580" y="336" width="130" height="103" as="geometry" />
        </mxCell>
        <mxCell id="vP5aR-Ci2R3j3Ts7c0Dq-134" value="Public subnet" style="points=[[0,0],[0.25,0],[0.5,0],[0.75,0],[1,0],[1,0.25],[1,0.5],[1,0.75],[1,1],[0.75,1],[0.5,1],[0.25,1],[0,1],[0,0.75],[0,0.5],[0,0.25]];outlineConnect=0;gradientColor=none;html=1;whiteSpace=wrap;fontSize=12;fontStyle=0;container=1;pointerEvents=0;collapsible=0;recursiveResize=0;shape=mxgraph.aws4.group;grIcon=mxgraph.aws4.group_security_group;grStroke=0;strokeColor=#7AA116;fillColor=#F2F6E8;verticalAlign=top;align=left;spacingLeft=30;fontColor=#248814;dashed=0;" vertex="1" parent="1">
          <mxGeometry x="860" y="336" width="130" height="100" as="geometry" />
        </mxCell>
        <mxCell id="vP5aR-Ci2R3j3Ts7c0Dq-218" style="edgeStyle=orthogonalEdgeStyle;rounded=0;orthogonalLoop=1;jettySize=auto;html=1;endArrow=none;endFill=0;strokeWidth=2;fillColor=#d5e8d4;strokeColor=#82b366;flowAnimation=1;" edge="1" parent="vP5aR-Ci2R3j3Ts7c0Dq-134" source="vP5aR-Ci2R3j3Ts7c0Dq-190">
          <mxGeometry relative="1" as="geometry">
            <mxPoint x="120" y="-326" as="targetPoint" />
          </mxGeometry>
        </mxCell>
        <mxCell id="vP5aR-Ci2R3j3Ts7c0Dq-190" value="" style="sketch=0;outlineConnect=0;fontColor=#232F3E;gradientColor=none;fillColor=#8C4FFF;strokeColor=none;dashed=0;verticalLabelPosition=bottom;verticalAlign=top;align=center;html=1;fontSize=12;fontStyle=0;aspect=fixed;pointerEvents=1;shape=mxgraph.aws4.nat_gateway;" vertex="1" parent="vP5aR-Ci2R3j3Ts7c0Dq-134">
          <mxGeometry x="43" y="28" width="44" height="44" as="geometry" />
        </mxCell>
        <mxCell id="vP5aR-Ci2R3j3Ts7c0Dq-146" value="Egress Private RT A" style="shape=table;startSize=20;container=1;collapsible=0;childLayout=tableLayout;strokeColor=default;fontSize=10;spacing=2;" vertex="1" parent="1">
          <mxGeometry x="600" y="-52.5" width="120" height="140" as="geometry" />
        </mxCell>
        <mxCell id="vP5aR-Ci2R3j3Ts7c0Dq-147" style="shape=tableRow;horizontal=0;startSize=0;swimlaneHead=0;swimlaneBody=0;strokeColor=inherit;top=0;left=0;bottom=0;right=0;collapsible=0;dropTarget=0;fillColor=none;points=[[0,0.5],[1,0.5]];portConstraint=eastwest;fontSize=16;" vertex="1" parent="vP5aR-Ci2R3j3Ts7c0Dq-146">
          <mxGeometry y="20" width="120" height="25" as="geometry" />
        </mxCell>
        <mxCell id="vP5aR-Ci2R3j3Ts7c0Dq-148" value="Destination" style="shape=partialRectangle;html=1;whiteSpace=wrap;connectable=0;strokeColor=inherit;overflow=hidden;fillColor=none;top=0;left=0;bottom=0;right=0;pointerEvents=1;fontSize=10;" vertex="1" parent="vP5aR-Ci2R3j3Ts7c0Dq-147">
          <mxGeometry width="55" height="25" as="geometry">
            <mxRectangle width="55" height="25" as="alternateBounds" />
          </mxGeometry>
        </mxCell>
        <mxCell id="vP5aR-Ci2R3j3Ts7c0Dq-149" value="Target" style="shape=partialRectangle;html=1;whiteSpace=wrap;connectable=0;strokeColor=inherit;overflow=hidden;fillColor=none;top=0;left=0;bottom=0;right=0;pointerEvents=1;fontSize=10;" vertex="1" parent="vP5aR-Ci2R3j3Ts7c0Dq-147">
          <mxGeometry x="55" width="65" height="25" as="geometry">
            <mxRectangle width="65" height="25" as="alternateBounds" />
          </mxGeometry>
        </mxCell>
        <mxCell id="vP5aR-Ci2R3j3Ts7c0Dq-150" value="" style="shape=tableRow;horizontal=0;startSize=0;swimlaneHead=0;swimlaneBody=0;strokeColor=inherit;top=0;left=0;bottom=0;right=0;collapsible=0;dropTarget=0;fillColor=none;points=[[0,0.5],[1,0.5]];portConstraint=eastwest;fontSize=16;" vertex="1" parent="vP5aR-Ci2R3j3Ts7c0Dq-146">
          <mxGeometry y="45" width="120" height="20" as="geometry" />
        </mxCell>
        <mxCell id="vP5aR-Ci2R3j3Ts7c0Dq-151" value="&lt;font style=&quot;font-size: 10px;&quot;&gt;10.0.0.0/23&lt;/font&gt;" style="shape=partialRectangle;html=1;whiteSpace=wrap;connectable=0;strokeColor=inherit;overflow=hidden;fillColor=none;top=0;left=0;bottom=0;right=0;pointerEvents=1;fontSize=10;" vertex="1" parent="vP5aR-Ci2R3j3Ts7c0Dq-150">
          <mxGeometry width="55" height="20" as="geometry">
            <mxRectangle width="55" height="20" as="alternateBounds" />
          </mxGeometry>
        </mxCell>
        <mxCell id="vP5aR-Ci2R3j3Ts7c0Dq-152" value="local" style="shape=partialRectangle;html=1;whiteSpace=wrap;connectable=0;strokeColor=inherit;overflow=hidden;fillColor=none;top=0;left=0;bottom=0;right=0;pointerEvents=1;fontSize=10;" vertex="1" parent="vP5aR-Ci2R3j3Ts7c0Dq-150">
          <mxGeometry x="55" width="65" height="20" as="geometry">
            <mxRectangle width="65" height="20" as="alternateBounds" />
          </mxGeometry>
        </mxCell>
        <mxCell id="vP5aR-Ci2R3j3Ts7c0Dq-153" value="" style="shape=tableRow;horizontal=0;startSize=0;swimlaneHead=0;swimlaneBody=0;strokeColor=inherit;top=0;left=0;bottom=0;right=0;collapsible=0;dropTarget=0;fillColor=none;points=[[0,0.5],[1,0.5]];portConstraint=eastwest;fontSize=16;" vertex="1" parent="vP5aR-Ci2R3j3Ts7c0Dq-146">
          <mxGeometry y="65" width="120" height="25" as="geometry" />
        </mxCell>
        <mxCell id="vP5aR-Ci2R3j3Ts7c0Dq-154" value="&lt;font style=&quot;font-size: 10px;&quot;&gt;0.0.0.0/0&lt;/font&gt;" style="shape=partialRectangle;html=1;whiteSpace=wrap;connectable=0;strokeColor=inherit;overflow=hidden;fillColor=none;top=0;left=0;bottom=0;right=0;pointerEvents=1;fontSize=10;" vertex="1" parent="vP5aR-Ci2R3j3Ts7c0Dq-153">
          <mxGeometry width="55" height="25" as="geometry">
            <mxRectangle width="55" height="25" as="alternateBounds" />
          </mxGeometry>
        </mxCell>
        <mxCell id="vP5aR-Ci2R3j3Ts7c0Dq-155" value="NAT-az-A" style="shape=partialRectangle;html=1;whiteSpace=wrap;connectable=0;strokeColor=inherit;overflow=hidden;fillColor=none;top=0;left=0;bottom=0;right=0;pointerEvents=1;fontSize=10;" vertex="1" parent="vP5aR-Ci2R3j3Ts7c0Dq-153">
          <mxGeometry x="55" width="65" height="25" as="geometry">
            <mxRectangle width="65" height="25" as="alternateBounds" />
          </mxGeometry>
        </mxCell>
        <mxCell id="vP5aR-Ci2R3j3Ts7c0Dq-156" style="shape=tableRow;horizontal=0;startSize=0;swimlaneHead=0;swimlaneBody=0;strokeColor=inherit;top=0;left=0;bottom=0;right=0;collapsible=0;dropTarget=0;fillColor=none;points=[[0,0.5],[1,0.5]];portConstraint=eastwest;fontSize=16;" vertex="1" parent="vP5aR-Ci2R3j3Ts7c0Dq-146">
          <mxGeometry y="90" width="120" height="25" as="geometry" />
        </mxCell>
        <mxCell id="vP5aR-Ci2R3j3Ts7c0Dq-157" value="10.2.0.0/23" style="shape=partialRectangle;html=1;whiteSpace=wrap;connectable=0;strokeColor=inherit;overflow=hidden;fillColor=none;top=0;left=0;bottom=0;right=0;pointerEvents=1;fontSize=10;" vertex="1" parent="vP5aR-Ci2R3j3Ts7c0Dq-156">
          <mxGeometry width="55" height="25" as="geometry">
            <mxRectangle width="55" height="25" as="alternateBounds" />
          </mxGeometry>
        </mxCell>
        <mxCell id="vP5aR-Ci2R3j3Ts7c0Dq-158" value="tgw-xxxxx" style="shape=partialRectangle;html=1;whiteSpace=wrap;connectable=0;strokeColor=inherit;overflow=hidden;fillColor=none;top=0;left=0;bottom=0;right=0;pointerEvents=1;fontSize=10;" vertex="1" parent="vP5aR-Ci2R3j3Ts7c0Dq-156">
          <mxGeometry x="55" width="65" height="25" as="geometry">
            <mxRectangle width="65" height="25" as="alternateBounds" />
          </mxGeometry>
        </mxCell>
        <mxCell id="vP5aR-Ci2R3j3Ts7c0Dq-159" style="shape=tableRow;horizontal=0;startSize=0;swimlaneHead=0;swimlaneBody=0;strokeColor=inherit;top=0;left=0;bottom=0;right=0;collapsible=0;dropTarget=0;fillColor=none;points=[[0,0.5],[1,0.5]];portConstraint=eastwest;fontSize=16;" vertex="1" parent="vP5aR-Ci2R3j3Ts7c0Dq-146">
          <mxGeometry y="115" width="120" height="25" as="geometry" />
        </mxCell>
        <mxCell id="vP5aR-Ci2R3j3Ts7c0Dq-160" value="10.3.0.0/23" style="shape=partialRectangle;html=1;whiteSpace=wrap;connectable=0;strokeColor=inherit;overflow=hidden;fillColor=none;top=0;left=0;bottom=0;right=0;pointerEvents=1;fontSize=10;" vertex="1" parent="vP5aR-Ci2R3j3Ts7c0Dq-159">
          <mxGeometry width="55" height="25" as="geometry">
            <mxRectangle width="55" height="25" as="alternateBounds" />
          </mxGeometry>
        </mxCell>
        <mxCell id="vP5aR-Ci2R3j3Ts7c0Dq-161" value="tgw-xxxxx" style="shape=partialRectangle;html=1;whiteSpace=wrap;connectable=0;strokeColor=inherit;overflow=hidden;fillColor=none;top=0;left=0;bottom=0;right=0;pointerEvents=1;fontSize=10;" vertex="1" parent="vP5aR-Ci2R3j3Ts7c0Dq-159">
          <mxGeometry x="55" width="65" height="25" as="geometry">
            <mxRectangle width="65" height="25" as="alternateBounds" />
          </mxGeometry>
        </mxCell>
        <mxCell id="vP5aR-Ci2R3j3Ts7c0Dq-162" value="" style="sketch=0;outlineConnect=0;fontColor=#232F3E;gradientColor=none;fillColor=#8C4FFF;strokeColor=none;dashed=0;verticalLabelPosition=bottom;verticalAlign=top;align=center;html=1;fontSize=12;fontStyle=0;aspect=fixed;pointerEvents=1;shape=mxgraph.aws4.route_table;" vertex="1" parent="1">
          <mxGeometry x="626" y="420" width="38" height="37.03" as="geometry" />
        </mxCell>
        <mxCell id="vP5aR-Ci2R3j3Ts7c0Dq-179" style="edgeStyle=orthogonalEdgeStyle;rounded=0;orthogonalLoop=1;jettySize=auto;html=1;strokeWidth=2;fillColor=#d5e8d4;strokeColor=#82b366;flowAnimation=1;" edge="1" parent="1" source="vP5aR-Ci2R3j3Ts7c0Dq-74" target="vP5aR-Ci2R3j3Ts7c0Dq-162">
          <mxGeometry relative="1" as="geometry">
            <Array as="points">
              <mxPoint x="520" y="280" />
              <mxPoint x="520" y="440" />
            </Array>
          </mxGeometry>
        </mxCell>
        <mxCell id="vP5aR-Ci2R3j3Ts7c0Dq-180" style="edgeStyle=orthogonalEdgeStyle;rounded=0;orthogonalLoop=1;jettySize=auto;html=1;entryX=0.479;entryY=0.002;entryDx=0;entryDy=0;entryPerimeter=0;strokeWidth=2;fillColor=#d5e8d4;strokeColor=#82b366;flowAnimation=1;" edge="1" parent="1" source="vP5aR-Ci2R3j3Ts7c0Dq-32" target="vP5aR-Ci2R3j3Ts7c0Dq-69">
          <mxGeometry relative="1" as="geometry" />
        </mxCell>
        <mxCell id="vP5aR-Ci2R3j3Ts7c0Dq-182" style="edgeStyle=orthogonalEdgeStyle;rounded=0;orthogonalLoop=1;jettySize=auto;html=1;entryX=0.375;entryY=0.98;entryDx=0;entryDy=0;entryPerimeter=0;strokeWidth=2;fillColor=#d5e8d4;strokeColor=#82b366;flowAnimation=1;" edge="1" parent="1" source="vP5aR-Ci2R3j3Ts7c0Dq-141" target="vP5aR-Ci2R3j3Ts7c0Dq-159">
          <mxGeometry relative="1" as="geometry" />
        </mxCell>
        <mxCell id="vP5aR-Ci2R3j3Ts7c0Dq-186" style="edgeStyle=orthogonalEdgeStyle;rounded=0;orthogonalLoop=1;jettySize=auto;html=1;entryX=0.375;entryY=0.021;entryDx=0;entryDy=0;entryPerimeter=0;strokeWidth=2;fillColor=#d5e8d4;strokeColor=#82b366;flowAnimation=1;" edge="1" parent="1" source="vP5aR-Ci2R3j3Ts7c0Dq-162" target="vP5aR-Ci2R3j3Ts7c0Dq-163">
          <mxGeometry relative="1" as="geometry" />
        </mxCell>
        <mxCell id="vP5aR-Ci2R3j3Ts7c0Dq-192" style="edgeStyle=orthogonalEdgeStyle;rounded=0;orthogonalLoop=1;jettySize=auto;html=1;entryX=0.455;entryY=0.042;entryDx=0;entryDy=0;entryPerimeter=0;strokeWidth=2;fillColor=#d5e8d4;strokeColor=#82b366;flowAnimation=1;" edge="1" parent="1" source="vP5aR-Ci2R3j3Ts7c0Dq-153" target="vP5aR-Ci2R3j3Ts7c0Dq-189">
          <mxGeometry relative="1" as="geometry" />
        </mxCell>
        <mxCell id="vP5aR-Ci2R3j3Ts7c0Dq-193" style="edgeStyle=orthogonalEdgeStyle;rounded=0;orthogonalLoop=1;jettySize=auto;html=1;strokeWidth=2;fillColor=#d5e8d4;strokeColor=#82b366;flowAnimation=1;" edge="1" parent="1" source="vP5aR-Ci2R3j3Ts7c0Dq-163" target="vP5aR-Ci2R3j3Ts7c0Dq-190">
          <mxGeometry relative="1" as="geometry">
            <mxPoint x="930" y="450" as="targetPoint" />
          </mxGeometry>
        </mxCell>
        <mxCell id="vP5aR-Ci2R3j3Ts7c0Dq-219" style="edgeStyle=orthogonalEdgeStyle;rounded=0;orthogonalLoop=1;jettySize=auto;html=1;strokeWidth=2;fillColor=#d5e8d4;strokeColor=#82b366;flowAnimation=1;" edge="1" parent="1" source="vP5aR-Ci2R3j3Ts7c0Dq-199" target="vP5aR-Ci2R3j3Ts7c0Dq-188">
          <mxGeometry relative="1" as="geometry" />
        </mxCell>
        <mxCell id="vP5aR-Ci2R3j3Ts7c0Dq-199" value="Egress Public RT" style="shape=table;startSize=20;container=1;collapsible=0;childLayout=tableLayout;strokeColor=default;fontSize=10;spacing=2;" vertex="1" parent="1">
          <mxGeometry x="1010" y="-52.5" width="120" height="140" as="geometry" />
        </mxCell>
        <mxCell id="vP5aR-Ci2R3j3Ts7c0Dq-200" style="shape=tableRow;horizontal=0;startSize=0;swimlaneHead=0;swimlaneBody=0;strokeColor=inherit;top=0;left=0;bottom=0;right=0;collapsible=0;dropTarget=0;fillColor=none;points=[[0,0.5],[1,0.5]];portConstraint=eastwest;fontSize=16;" vertex="1" parent="vP5aR-Ci2R3j3Ts7c0Dq-199">
          <mxGeometry y="20" width="120" height="25" as="geometry" />
        </mxCell>
        <mxCell id="vP5aR-Ci2R3j3Ts7c0Dq-201" value="Destination" style="shape=partialRectangle;html=1;whiteSpace=wrap;connectable=0;strokeColor=inherit;overflow=hidden;fillColor=none;top=0;left=0;bottom=0;right=0;pointerEvents=1;fontSize=10;" vertex="1" parent="vP5aR-Ci2R3j3Ts7c0Dq-200">
          <mxGeometry width="55" height="25" as="geometry">
            <mxRectangle width="55" height="25" as="alternateBounds" />
          </mxGeometry>
        </mxCell>
        <mxCell id="vP5aR-Ci2R3j3Ts7c0Dq-202" value="Target" style="shape=partialRectangle;html=1;whiteSpace=wrap;connectable=0;strokeColor=inherit;overflow=hidden;fillColor=none;top=0;left=0;bottom=0;right=0;pointerEvents=1;fontSize=10;" vertex="1" parent="vP5aR-Ci2R3j3Ts7c0Dq-200">
          <mxGeometry x="55" width="65" height="25" as="geometry">
            <mxRectangle width="65" height="25" as="alternateBounds" />
          </mxGeometry>
        </mxCell>
        <mxCell id="vP5aR-Ci2R3j3Ts7c0Dq-203" value="" style="shape=tableRow;horizontal=0;startSize=0;swimlaneHead=0;swimlaneBody=0;strokeColor=inherit;top=0;left=0;bottom=0;right=0;collapsible=0;dropTarget=0;fillColor=none;points=[[0,0.5],[1,0.5]];portConstraint=eastwest;fontSize=16;" vertex="1" parent="vP5aR-Ci2R3j3Ts7c0Dq-199">
          <mxGeometry y="45" width="120" height="20" as="geometry" />
        </mxCell>
        <mxCell id="vP5aR-Ci2R3j3Ts7c0Dq-204" value="&lt;font style=&quot;font-size: 10px;&quot;&gt;10.0.0.0/23&lt;/font&gt;" style="shape=partialRectangle;html=1;whiteSpace=wrap;connectable=0;strokeColor=inherit;overflow=hidden;fillColor=none;top=0;left=0;bottom=0;right=0;pointerEvents=1;fontSize=10;" vertex="1" parent="vP5aR-Ci2R3j3Ts7c0Dq-203">
          <mxGeometry width="55" height="20" as="geometry">
            <mxRectangle width="55" height="20" as="alternateBounds" />
          </mxGeometry>
        </mxCell>
        <mxCell id="vP5aR-Ci2R3j3Ts7c0Dq-205" value="local" style="shape=partialRectangle;html=1;whiteSpace=wrap;connectable=0;strokeColor=inherit;overflow=hidden;fillColor=none;top=0;left=0;bottom=0;right=0;pointerEvents=1;fontSize=10;" vertex="1" parent="vP5aR-Ci2R3j3Ts7c0Dq-203">
          <mxGeometry x="55" width="65" height="20" as="geometry">
            <mxRectangle width="65" height="20" as="alternateBounds" />
          </mxGeometry>
        </mxCell>
        <mxCell id="vP5aR-Ci2R3j3Ts7c0Dq-206" value="" style="shape=tableRow;horizontal=0;startSize=0;swimlaneHead=0;swimlaneBody=0;strokeColor=inherit;top=0;left=0;bottom=0;right=0;collapsible=0;dropTarget=0;fillColor=none;points=[[0,0.5],[1,0.5]];portConstraint=eastwest;fontSize=16;" vertex="1" parent="vP5aR-Ci2R3j3Ts7c0Dq-199">
          <mxGeometry y="65" width="120" height="25" as="geometry" />
        </mxCell>
        <mxCell id="vP5aR-Ci2R3j3Ts7c0Dq-207" value="&lt;font style=&quot;font-size: 10px;&quot;&gt;0.0.0.0/0&lt;/font&gt;" style="shape=partialRectangle;html=1;whiteSpace=wrap;connectable=0;strokeColor=inherit;overflow=hidden;fillColor=none;top=0;left=0;bottom=0;right=0;pointerEvents=1;fontSize=10;" vertex="1" parent="vP5aR-Ci2R3j3Ts7c0Dq-206">
          <mxGeometry width="55" height="25" as="geometry">
            <mxRectangle width="55" height="25" as="alternateBounds" />
          </mxGeometry>
        </mxCell>
        <mxCell id="vP5aR-Ci2R3j3Ts7c0Dq-208" value="igw-xxxxx" style="shape=partialRectangle;html=1;whiteSpace=wrap;connectable=0;strokeColor=inherit;overflow=hidden;fillColor=none;top=0;left=0;bottom=0;right=0;pointerEvents=1;fontSize=10;" vertex="1" parent="vP5aR-Ci2R3j3Ts7c0Dq-206">
          <mxGeometry x="55" width="65" height="25" as="geometry">
            <mxRectangle width="65" height="25" as="alternateBounds" />
          </mxGeometry>
        </mxCell>
        <mxCell id="vP5aR-Ci2R3j3Ts7c0Dq-209" style="shape=tableRow;horizontal=0;startSize=0;swimlaneHead=0;swimlaneBody=0;strokeColor=inherit;top=0;left=0;bottom=0;right=0;collapsible=0;dropTarget=0;fillColor=none;points=[[0,0.5],[1,0.5]];portConstraint=eastwest;fontSize=16;" vertex="1" parent="vP5aR-Ci2R3j3Ts7c0Dq-199">
          <mxGeometry y="90" width="120" height="25" as="geometry" />
        </mxCell>
        <mxCell id="vP5aR-Ci2R3j3Ts7c0Dq-210" value="10.2.0.0/23" style="shape=partialRectangle;html=1;whiteSpace=wrap;connectable=0;strokeColor=inherit;overflow=hidden;fillColor=none;top=0;left=0;bottom=0;right=0;pointerEvents=1;fontSize=10;" vertex="1" parent="vP5aR-Ci2R3j3Ts7c0Dq-209">
          <mxGeometry width="55" height="25" as="geometry">
            <mxRectangle width="55" height="25" as="alternateBounds" />
          </mxGeometry>
        </mxCell>
        <mxCell id="vP5aR-Ci2R3j3Ts7c0Dq-211" value="tgw-xxxxx" style="shape=partialRectangle;html=1;whiteSpace=wrap;connectable=0;strokeColor=inherit;overflow=hidden;fillColor=none;top=0;left=0;bottom=0;right=0;pointerEvents=1;fontSize=10;" vertex="1" parent="vP5aR-Ci2R3j3Ts7c0Dq-209">
          <mxGeometry x="55" width="65" height="25" as="geometry">
            <mxRectangle width="65" height="25" as="alternateBounds" />
          </mxGeometry>
        </mxCell>
        <mxCell id="vP5aR-Ci2R3j3Ts7c0Dq-212" style="shape=tableRow;horizontal=0;startSize=0;swimlaneHead=0;swimlaneBody=0;strokeColor=inherit;top=0;left=0;bottom=0;right=0;collapsible=0;dropTarget=0;fillColor=none;points=[[0,0.5],[1,0.5]];portConstraint=eastwest;fontSize=16;" vertex="1" parent="vP5aR-Ci2R3j3Ts7c0Dq-199">
          <mxGeometry y="115" width="120" height="25" as="geometry" />
        </mxCell>
        <mxCell id="vP5aR-Ci2R3j3Ts7c0Dq-213" value="10.3.0.0/23" style="shape=partialRectangle;html=1;whiteSpace=wrap;connectable=0;strokeColor=inherit;overflow=hidden;fillColor=none;top=0;left=0;bottom=0;right=0;pointerEvents=1;fontSize=10;" vertex="1" parent="vP5aR-Ci2R3j3Ts7c0Dq-212">
          <mxGeometry width="55" height="25" as="geometry">
            <mxRectangle width="55" height="25" as="alternateBounds" />
          </mxGeometry>
        </mxCell>
        <mxCell id="vP5aR-Ci2R3j3Ts7c0Dq-214" value="tgw-xxxxx" style="shape=partialRectangle;html=1;whiteSpace=wrap;connectable=0;strokeColor=inherit;overflow=hidden;fillColor=none;top=0;left=0;bottom=0;right=0;pointerEvents=1;fontSize=10;" vertex="1" parent="vP5aR-Ci2R3j3Ts7c0Dq-212">
          <mxGeometry x="55" width="65" height="25" as="geometry">
            <mxRectangle width="65" height="25" as="alternateBounds" />
          </mxGeometry>
        </mxCell>
        <mxCell id="vP5aR-Ci2R3j3Ts7c0Dq-217" style="edgeStyle=orthogonalEdgeStyle;rounded=0;orthogonalLoop=1;jettySize=auto;html=1;entryX=0;entryY=0.5;entryDx=0;entryDy=0;strokeWidth=2;fillColor=#d5e8d4;strokeColor=#82b366;flowAnimation=1;" edge="1" parent="1" source="vP5aR-Ci2R3j3Ts7c0Dq-189" target="vP5aR-Ci2R3j3Ts7c0Dq-203">
          <mxGeometry relative="1" as="geometry">
            <Array as="points">
              <mxPoint x="980" y="220" />
              <mxPoint x="980" y="3" />
            </Array>
          </mxGeometry>
        </mxCell>
        <mxCell id="vP5aR-Ci2R3j3Ts7c0Dq-220" value="" style="outlineConnect=0;dashed=0;verticalLabelPosition=bottom;verticalAlign=top;align=center;html=1;shape=mxgraph.aws3.internet_2;fillColor=#D2D3D3;gradientColor=none;" vertex="1" parent="1">
          <mxGeometry x="1140" y="275.63" width="79.5" height="54" as="geometry" />
        </mxCell>
        <mxCell id="vP5aR-Ci2R3j3Ts7c0Dq-221" style="edgeStyle=orthogonalEdgeStyle;rounded=0;orthogonalLoop=1;jettySize=auto;html=1;strokeWidth=2;flowAnimation=1;fillColor=#d5e8d4;strokeColor=#82b366;" edge="1" parent="1" source="vP5aR-Ci2R3j3Ts7c0Dq-188" target="vP5aR-Ci2R3j3Ts7c0Dq-220">
          <mxGeometry relative="1" as="geometry" />
        </mxCell>
      </root>
    </mxGraphModel>
  </diagram>
</mxfile>
